PathFileType	4	(X/Y/Z)	C:/Users/beibeiliu/ov580/test_trc\sequence.17_training_dense_left.trc
DataRate	CameraRate	NumFrames	NumMarkers	Units	OrigDataRate	OrigDataStartFrame	OrigNumFrames
120	120	9	19	mm	120	152	303
Frame#	Time	ThumbCMC			ThumbMCP			ThumbIP			ThumbTip			IndexMCP			IndexPIP			IndexTip			MiddleMCP			MiddlePIP			MiddleTip			RingMCP			RingPIP			RingTip			PinkyMCP			PinkyPIP			PinkyTip			BackHand1			BackHand2			BackHand3	
		X0	Y0	Z0	X1	Y1	Z1	X2	Y2	Z2	X3	Y3	Z3	X4	Y4	Z4	X5	Y5	Z5	X6	Y6	Z6	X7	Y7	Z7	X8	Y8	Z8	X9	Y9	Z9	X10	Y10	Z10	X11	Y11	Z11	X12	Y12	Z12	X13	Y13	Z13	X14	Y14	Z14	X15	Y15	Z15	X16	Y16	Z16	X17	Y17	Z17	X18	Y18	Z18	
151	1.25833	-234.718	21.6835	5.56495	-237.891	10.4341	-17.2379	-226.488	-1.64459	-36.0021	-221.763	-9.00374	-49.8029	-230.131	54.5182	-48.1758	-228.264	56.3719	-70.8522	-227.883	60.8698	-94.2621	-260.128	48.0816	-52.3607	-274.155	20.3509	-54.5822	-266.907	17.2191	-21.6686	-277.565	42.8577	-47.2758	-280.496	20.6753	-33.0941	-272.709	24.7933	-9.6634	-289.075	47.96	-37.2484	-289.662	27.7572	-24.3723	-277.323	34.2691	-3.85001	-265.015	72.7195	-5.60525	-266.624	65.3706	22.8445	-242.208	57.3938	5.87184	
152	1.26667	-234.394	21.8846	4.62482	-237.27	6.97302	-13.8678	-227.7	-3.7499	-32.3704	-221.087	-12.777	-45.6111	-226.573	50.2831	-53.6425	-224.338	50.862	-75.4679	-224.738	55.1066	-94.8014	-258.388	45.0267	-56.2	-271.229	17.8296	-55.9349	-267.904	16.7121	-23.4247	-273.478	44.5272	-47.364	-280.88	21.3468	-36.0141	-270.103	28.3314	-8.17311	-290.858	49.7343	-37.9306	-285.163	28.2133	-26.206	-272.73	36.8372	-6.57202	-261.378	70.2488	-5.70608	-258.664	65.3973	21.2548	-238.713	55.8427	6.33891	
153	1.275	-234.603	22.7748	4.25766	-233.909	4.69599	-15.5712	-229.043	-2.69413	-34.9936	-222.405	-14.6338	-44.9058	-228.508	49.5911	-53.0001	-223.397	49.1516	-79.7231	-225.51	52.6649	-100.803	-255.463	40.3403	-60.3323	-272.411	17.6461	-55.8743	-264.089	14.9178	-24.2319	-275.209	46.1573	-47.837	-280.13	19.5507	-34.0291	-268.295	24.9209	-12.0105	-284.809	48.9263	-38.856	-285.624	28.7035	-23.8073	-271.791	36.7976	-6.61076	-259.444	71.5518	-12.0229	-258.122	67.2276	20.3776	-235.532	55.9184	5.41334	
154	1.28333	-232.83	22.7334	3.34236	-231.608	2.7299	-17.8481	-225.644	-7.71181	-37.7349	-222.475	-14.9244	-49.5576	-222.935	45.889	-59.6569	-225.427	46.9853	-80.0472	-224.323	47.3229	-99.7926	-256.124	41.423	-59.4637	-269.392	14.8978	-56.566	-261.795	15.4091	-22.9433	-268.553	43.1897	-49.0973	-279.223	20.0488	-32.9871	-267.078	26.9407	-10.7404	-285.147	50.3587	-39.6287	-281.331	27.2618	-26.967	-270.878	35.8209	-8.62143	-254.086	69.5299	-11.8874	-255.753	66.9706	18.6197	-232.138	53.3632	0.0666882	
155	1.29167	-230.872	21.2003	5.7113	-234.615	5.6648	-19.9283	-227.986	-8.51127	-35.8675	-220.27	-20.8855	-49.6723	-220.818	40.5809	-57.5277	-220.114	40.0928	-82.0489	-221.179	40.8055	-103.441	-252.334	38.7662	-60.9358	-267.917	11.7485	-53.5213	-263.2	15.0756	-24.3899	-267.184	40.342	-51.0335	-278.784	19.4036	-36.5388	-264.334	25.9589	-11.7787	-281.643	45.6456	-42.0725	-282.642	28.3207	-26.7494	-267.74	34.7222	-8.04084	-249.711	69.2307	-14.206	-249.377	68.1386	16.9686	-230.788	55.9544	1.63506	
156	1.3	-229.06	19.7121	1.82279	-234.106	3.98112	-18.0744	-227.833	-12.2677	-35.7334	-223.751	-25.9815	-44.4818	-224.174	39.832	-62.5398	-223.73	37.2562	-82.6313	-223.511	34.7932	-104.078	-255.019	35.3598	-63.5478	-270.211	11.8142	-55.6838	-262.677	15.8226	-23.0072	-271.781	38.5028	-52.8788	-273.805	16.2499	-35.994	-262.701	26.1098	-12.0645	-277.675	48.143	-42.2964	-280.491	27.2497	-30.3716	-267.573	33.9616	-7.30723	-249.279	67.7752	-18.005	-246.704	66.6655	11.4046	-229.186	54.0856	-5.04725	
157	1.30833	-227.222	16.6505	4.84991	-235.875	0.278165	-13.5438	-230.756	-16.4888	-32.9742	-228.36	-28.0953	-45.7086	-219.602	31.4389	-61.7915	-222.504	28.4873	-82.2686	-221.822	24.9926	-106.545	-252.444	34.359	-62.1188	-269.341	7.66122	-55.0915	-260.926	15.7222	-22.3191	-270.812	37.8325	-52.5032	-274.872	16.3095	-36.6888	-262.195	26.3695	-12.5737	-279.669	45.0983	-44.4248	-280.266	26.0139	-30.1111	-262.358	33.8388	-12.8754	-248.319	68.0911	-21.7626	-246.03	68.7835	8.35336	-224.208	48.9793	-3.82198	
158	1.31667	-228.88	16.9988	1.5103	-234.55	-4.51685	-15.5567	-234.398	-16.9815	-29.4607	-230.577	-32.657	-39.2374	-221.068	27.2704	-64.8547	-222.832	21.5048	-85.4249	-224.225	17.8928	-106.068	-252.495	24.8245	-65.2549	-270.043	5.70454	-56.6225	-264.035	12.3673	-24.1962	-270.88	31.6806	-54.8575	-274.896	13.7279	-36.0753	-264.648	23.2777	-13.0311	-279.996	42.5038	-45.3563	-283.112	27.2204	-28.3552	-263.176	36.0009	-10.5454	-245.441	64.3743	-20.9982	-243.57	69.2042	5.98696	-222.306	47.9731	-7.36655	
159	1.325	-228.118	14.5426	4.67095	-234.117	-7.8048	-14.3629	-232.441	-23.4644	-29.3686	-230.096	-38.9277	-36.5503	-219.64	18.6093	-61.7184	-222.781	12.6688	-88.0081	-227.348	9.53167	-104.628	-252.201	24.2016	-63.3621	-273.158	3.96615	-51.8462	-262.044	10.4147	-21.9924	-269.471	31.0976	-53.5358	-274.442	11.1136	-34.6713	-260.862	22.7658	-13.4561	-276.54	39.6717	-46.3829	-278.917	24.2389	-28.7848	-262.246	29.6396	-11.2559	-242.699	63.715	-24.1759	-240.057	68.3255	1.30854	-223.023	47.1616	-10.733	
